<?xml version="1.0" encoding="UTF-8" standalone="no"?>
<!DOCTYPE svg PUBLIC "-//W3C//DTD SVG 1.1//EN" "http://www.w3.org/Graphics/SVG/1.1/DTD/svg11.dtd">
<svg width="100%" height="100%" viewBox="0 0 330 512" version="1.1" xmlns="http://www.w3.org/2000/svg" xmlns:xlink="http://www.w3.org/1999/xlink" xml:space="preserve" xmlns:serif="http://www.serif.com/" style="fill-rule:evenodd;clip-rule:evenodd;stroke-linecap:round;stroke-linejoin:round;stroke-miterlimit:1.5;">
    <g transform="matrix(1,0,0,1,-91,2.84217e-14)">
        <g transform="matrix(1,0,0,1,-505.357,-168.58)">
            <path d="M763.448,173.6L817.827,219.613L803.187,292.815L782.272,324.188L807.37,355.56L855.474,368.109L874.298,393.207L857.566,458.044L903.579,468.501L911.945,527.063L880.572,529.155L884.755,658.828L637.958,663.011L635.867,527.063L608.677,522.88L617.043,474.776L637.958,462.227L669.331,466.41L650.507,384.841L665.148,359.743L711.161,359.743L732.076,330.462L719.527,299.09L702.795,242.619L715.344,202.881L734.167,184.057L763.448,173.6Z" style="fill:white;"/>
            <g transform="matrix(1,0,0,1,505.357,168.58)">
                <path d="M137.271,361.718L137.271,497.687L385.139,497.037L376.03,360.417L137.271,361.718Z" style="fill:rgb(205,6,20);stroke:black;stroke-width:1px;"/>
            </g>
            <g transform="matrix(1,0,0,1,505.357,168.58)">
                <g id="marker5Lenin">
                    <g>
                        <g>
                            <g>
                                <path d="M406,375C414.284,375 421,368.284 421,360L421,330C421,305.187 400.813,285 376,285L366.265,285L381.028,236.657C381.103,236.411 381.172,236.163 381.234,235.914C388.334,207.516 366.874,180 337.577,180L316,180C307.729,180 301,173.271 301,165L301,154.958C318.841,133.189 331,99.956 331,75C331,33.645 297.355,0 256,0C214.645,0 181,33.645 181,75C181,99.955 193.158,133.188 211,154.958L211,165C211,173.271 204.271,180 196,180L174.423,180C145.149,180 123.662,207.494 130.767,235.914C130.83,236.164 130.898,236.411 130.973,236.657L145.736,285L136,285C111.187,285 91,305.187 91,330L91,360C91,368.284 97.716,375 106,375L121,375L121,482L106,482C97.716,482 91,488.716 91,497C91,505.284 97.716,512 106,512L406,512C414.284,512 421,505.284 421,497C421,488.716 414.284,482 406,482L391,482L391,375L406,375ZM256,30C280.813,30 301,50.187 301,75C301,89.122 294.777,109.131 285.516,124.79C276.179,140.576 265.146,150 256,150C246.854,150 235.821,140.576 226.484,124.79C217.223,109.131 211,89.122 211,75C211,50.187 231.187,30 256,30ZM174.423,210L196,210C216.716,210 234.197,195.925 239.408,176.839C244.829,178.924 250.384,180 256,180C261.616,180 267.171,178.924 272.592,176.839C277.803,195.925 295.284,210 316,210L337.577,210C347.226,210 354.339,218.96 352.204,228.326L334.897,285L177.103,285L159.797,228.325C157.66,218.956 164.778,210 174.423,210ZM361,482L151,482L151,375L361,375L361,482ZM391,345L121,345L121,330C121,321.729 127.729,315 136,315L376,315C384.271,315 391,321.729 391,330L391,345Z" style="fill-rule:nonzero;"/>
                            </g>
                        </g>
                        <g>
                            <g>
                                <path d="M286,422L226,422C217.716,422 211,428.716 211,437C211,445.284 217.716,452 226,452L286,452C294.284,452 301,445.284 301,437C301,428.716 294.284,422 286,422Z" style="fill-rule:nonzero;"/>
                            </g>
                        </g>
                    </g>
                </g>
            </g>
        </g>
    </g>
</svg>
