<svg id="Layer_3" enable-background="new 0 0 64 64" height="512" viewBox="0 0 64 64" width="512" xmlns="http://www.w3.org/2000/svg"><g><path d="m53.142 37.01-13.482-1.926-6.766-13.531c-.339-.678-1.45-.678-1.789 0l-6.765 13.531-13.482 1.926c-.393.056-.715.339-.822.721s.023.791.33 1.042l10.433 8.536-5.728 14.319c-.157.394-.049.844.27 1.124.319.281.779.328 1.149.12l15.51-8.725 15.51 8.724c.153.087.322.129.49.129.237 0 .472-.084.659-.248.319-.279.427-.729.27-1.124l-5.728-14.318 10.433-8.536c.307-.251.437-.66.33-1.042s-.43-.666-.822-.722zm-14.284-.02 8.826 1.261-14.684 4.405v-16.42l5.105 10.211c.147.294.429.496.753.543zm-13.716 0c.325-.046.606-.249.753-.542l5.105-10.212v16.42l-14.684-4.405zm-2.509 9.236-7.704-6.303 15.281 4.584-11.157 12.552 3.875-9.688c.163-.405.043-.869-.295-1.145zm9.367 5.774c-.169 0-.338.043-.49.128l-10.794 6.072 11.284-12.694 11.284 12.694-10.794-6.072c-.152-.085-.321-.128-.49-.128zm9.071-4.628 3.875 9.688-11.157-12.553 15.281-4.584-7.704 6.303c-.337.276-.457.74-.295 1.146z"/><path d="m5 57h-2v2h-2v2h2v2h2v-2h2v-2h-2z"/><path d="m17 50v-2h-2v-2h-2v2h-2v2h2v2h2v-2z"/><path d="m61 57h-2v2h-2v2h2v2h2v-2h2v-2h-2z"/><path d="m51 46h-2v2h-2v2h2v2h2v-2h2v-2h-2z"/><path d="m17 23c0-4.072-3.06-7.436-7-7.931v-14.069h-2v14.069c-3.94.495-7 3.859-7 7.931 0 4.411 3.589 8 8 8s8-3.589 8-8zm-8 6c-3.309 0-6-2.691-6-6s2.691-6 6-6 6 2.691 6 6-2.691 6-6 6z"/><path d="m9 19v2c1.103 0 2 .897 2 2h2c0-2.206-1.794-4-4-4z"/><path d="m63 23c0-4.072-3.06-7.436-7-7.931v-14.069h-2v14.069c-3.94.495-7 3.859-7 7.931 0 4.411 3.589 8 8 8s8-3.589 8-8zm-8 6c-3.309 0-6-2.691-6-6s2.691-6 6-6 6 2.691 6 6-2.691 6-6 6z"/><path d="m55 19v2c1.103 0 2 .897 2 2h2c0-2.206-1.794-4-4-4z"/><path d="m32 19c3.309 0 6-2.691 6-6 0-2.967-2.167-5.431-5-5.91v-6.09h-2v6.09c-2.833.478-5 2.942-5 5.91 0 3.309 2.691 6 6 6zm0-10c2.206 0 4 1.794 4 4s-1.794 4-4 4-4-1.794-4-4 1.794-4 4-4z"/></g></svg>