<?xml version="1.0" encoding="UTF-8" standalone="no"?>
<!DOCTYPE svg PUBLIC "-//W3C//DTD SVG 1.1//EN" "http://www.w3.org/Graphics/SVG/1.1/DTD/svg11.dtd">
<svg width="100%" height="100%" viewBox="0 0 318 424" version="1.1" xmlns="http://www.w3.org/2000/svg" xmlns:xlink="http://www.w3.org/1999/xlink" xml:space="preserve" xmlns:serif="http://www.serif.com/" style="fill-rule:evenodd;clip-rule:evenodd;stroke-linejoin:round;stroke-miterlimit:2;">
    <g transform="matrix(1,0,0,1,2.8e-05,0)">
        <g transform="matrix(1,0,0,1,-97.1011,-44.1348)">
            <g transform="matrix(0.827598,0,0,0.827598,44.1348,44.1348)">
                <g>
                    <path d="M256,0C150.112,0 64,86.112 64,192C64,325.088 237.312,499.936 244.672,507.328C247.808,510.432 251.904,512 256,512C260.096,512 264.192,510.432 267.328,507.328C274.688,499.936 448,325.088 448,192C448,86.112 361.888,0 256,0Z" style="fill:rgb(231,155,82);fill-rule:nonzero;"/>
                </g>
            </g>
        </g>
        <g transform="matrix(1,0,0,1,-97.1011,-44.1348)">
            <g transform="matrix(0.728041,0,0,0.259612,70.2202,284.284)">
                <g>
                    <rect x="195.177" y="299.791" width="126.048" height="80.305" style="fill:white;"/>
                </g>
            </g>
        </g>
        <g transform="matrix(1,0,0,1,-97.1011,-44.1348)">
            <g transform="matrix(0.562172,0,0,-1.79095,113.825,851.021)">
                <g>
                    <path d="M338.438,299.791L181.853,299.791L181.853,353.657L199.066,353.657L199.066,380.096L321.225,380.096L321.683,353.657L338.438,353.657L338.438,299.791Z" style="fill:white;"/>
                </g>
            </g>
        </g>
        <g transform="matrix(1,0,0,1,-97.1011,-44.1348)">
            <g transform="matrix(0.772172,0,0,1,60.2136,0)">
                <g>
                    <path d="M235.446,149.174L249.677,128.885L258.201,92.083L267.974,128.885L282.206,149.174L282.206,174.452L235.446,174.452L235.446,149.174Z" style="fill:white;"/>
                </g>
            </g>
        </g>
        <g transform="matrix(1,0,0,1,-97.1011,-44.1348)">
            <g transform="matrix(0.834247,-4.37873e-17,6.61769e-18,-0.312094,42.7976,444.931)">
                <g>
                    <path d="M321.225,299.791L195.177,299.791L189.701,335.702L195.177,380.096L321.225,380.096L326.701,335.702L321.225,299.791Z" style="fill:white;"/>
                </g>
            </g>
        </g>
    </g>
</svg>
