<?xml version="1.0" encoding="UTF-8" standalone="no"?>
<!DOCTYPE svg PUBLIC "-//W3C//DTD SVG 1.1//EN" "http://www.w3.org/Graphics/SVG/1.1/DTD/svg11.dtd">
<svg width="100%" height="100%" viewBox="0 0 318 424" version="1.1" xmlns="http://www.w3.org/2000/svg" xmlns:xlink="http://www.w3.org/1999/xlink" xml:space="preserve" xmlns:serif="http://www.serif.com/" style="fill-rule:evenodd;clip-rule:evenodd;stroke-linejoin:round;stroke-miterlimit:2;">
    <g transform="matrix(1,0,0,1,2.8e-05,0)">
        <g transform="matrix(1,0,0,1,-97.1011,-44.1348)">
            <g transform="matrix(0.827598,0,0,0.827598,44.1348,44.1348)">
                <path d="M256,0C150.112,0 64,86.112 64,192C64,325.088 237.312,499.936 244.672,507.328C247.808,510.432 251.904,512 256,512C260.096,512 264.192,510.432 267.328,507.328C274.688,499.936 448,325.088 448,192C448,86.112 361.888,0 256,0Z" style="fill:rgb(150,85,90);fill-rule:nonzero;"/>
            </g>
        </g>
        <g transform="matrix(1,0,0,1,-97.1011,-44.1348)">
            <g transform="matrix(0.360957,0,0,0.360957,163.595,114.358)">
                <g transform="matrix(1.28883,0,0,1.28883,-64.6603,-99.5054)">
                    <path d="M303.667,47.667C303.667,21.383 282.283,0 256,0C229.717,0 208.334,21.383 208.334,47.667C208.334,73.951 229.717,95.333 256,95.333C282.283,95.333 303.667,73.95 303.667,47.667Z" style="fill:white;fill-rule:nonzero;"/>
                </g>
                <g transform="matrix(1.28883,0,0,1.28883,-64.6603,-99.5054)">
                    <path d="M144.337,158.27L178.866,158.27L178.866,142.467C178.866,124.727 184.902,108.379 195.006,95.333L111.4,95.333C103.146,95.333 96.412,102.006 96.4,110.259C96.361,136.931 117.942,158.27 144.337,158.27Z" style="fill:white;fill-rule:nonzero;"/>
                </g>
                <path d="M144.6,730.003L367.4,730.003L367.4,414.533C367.4,406.249 360.684,399.533 352.4,399.533L159.6,399.533C151.316,399.533 144.6,406.249 144.6,414.533L144.6,730.003Z" style="fill:white;fill-rule:nonzero;"/>
                <g transform="matrix(1.28883,0,0,1.28883,-64.6603,-99.5054)">
                    <path d="M208.016,369.533L304.2,369.533L304.2,302.067L336.333,302.067C346.937,302.067 354.197,291.338 350.26,281.496L333.922,240.651L317.48,257.094C311.622,262.953 302.123,262.951 296.267,257.094C290.409,251.237 290.409,241.739 296.267,235.881L346.94,185.208C352.218,179.93 352.812,171.573 348.334,165.602L300.135,101.335C297.197,97.416 292.683,95.346 288.135,95.335L256,95.335C229.969,95.335 208.866,116.437 208.866,142.469L208.866,287.069C208.866,295.353 215.582,302.069 223.866,302.069L232.307,302.069L232.307,330.658C218.437,339.083 209.492,353.412 208.016,369.533Z" style="fill:white;fill-rule:nonzero;"/>
                </g>
            </g>
        </g>
    </g>
</svg>
