<?xml version="1.0" encoding="UTF-8" standalone="no"?>
<!DOCTYPE svg PUBLIC "-//W3C//DTD SVG 1.1//EN" "http://www.w3.org/Graphics/SVG/1.1/DTD/svg11.dtd">
<svg width="100%" height="100%" viewBox="0 0 121 363" version="1.1" xmlns="http://www.w3.org/2000/svg" xmlns:xlink="http://www.w3.org/1999/xlink" xml:space="preserve" xmlns:serif="http://www.serif.com/" style="fill-rule:evenodd;clip-rule:evenodd;stroke-linecap:round;stroke-linejoin:round;stroke-miterlimit:1.5;">
    <g transform="matrix(1,0,0,1,-46.1682,-0.0001)">
        <g transform="matrix(0.760872,0,0,0.760872,-431.617,-127.421)">
            <g transform="matrix(1,0,0,1,-30.1176,152.261)">
                <path d="M669.987,482.58L664.496,184.243L679.555,157.472L701.307,177.55L726.405,67.119L734.771,30.308L750.268,73.73L776.101,185.315L794.523,163.384L812.068,187.069L811.529,483.296L669.987,482.58Z" style="fill:rgb(204,153,102);"/>
                <g transform="matrix(0.453867,0,0,1.0189,405.662,148.899)">
                    <path d="M771.725,253.465L696.431,253.465L675.009,323.095L796.631,323.095L771.725,253.465Z" style="fill:rgb(205,6,20);stroke:black;stroke-width:22.62px;"/>
                </g>
                <g transform="matrix(1,0,0,1,481.561,15.2061)">
                    <path d="M320.501,476.144L335.5,476.144L335.5,170.826C335.5,168.931 334.991,167.079 334.031,165.475L321.399,144.334C319.591,141.307 316.452,139.5 313,139.5C309.548,139.5 306.408,141.307 304.602,144.332L297.677,155.922L287.428,111.204C286.502,107.167 271.775,108.729 272.701,112.766L284.712,166.5L277.553,166.5C277.394,166.151 277.229,165.805 277.031,165.475L264.399,144.334C262.591,141.307 259.452,139.5 256,139.5C252.548,139.5 249.408,141.307 247.602,144.332L234.972,165.47C234.774,165.802 234.607,166.149 234.448,166.5L227.289,166.5L256.001,31.6L275.595,125.711L289.977,122.325C289.977,122.325 260.594,0 256,0C251.406,0 214.324,155.922 214.324,155.922L207.4,144.334C205.592,141.307 202.453,139.5 199.001,139.5C195.549,139.5 192.409,141.307 190.603,144.332L177.973,165.47C177.01,167.079 176.501,168.931 176.501,170.825L176.501,476.144L320.501,476.144L320.501,460.454L191.501,460.454L191.501,211.5L320.501,211.5L320.501,476.144ZM191.5,172.073L199,159.521L206.5,172.073L206.5,196.5L191.5,196.5L191.5,172.073ZM221.5,181.5L233.5,181.5L233.5,196.5L221.5,196.5L221.5,181.5ZM248.5,172.073L256,159.521L263.5,172.073L263.5,196.5L248.5,196.5L248.5,172.073ZM278.5,181.5L290.5,181.5L290.5,196.5L278.5,196.5L278.5,181.5ZM305.5,196.5L305.5,172.073L313,159.521L320.5,172.073L320.5,196.5L305.5,196.5Z" style="fill-rule:nonzero;"/>
                </g>
                <g transform="matrix(0.453867,0,0,0.508131,405.283,140.733)">
                    <rect x="698.173" y="247.801" width="75.294" height="75.294" style="fill:none;stroke:black;stroke-width:26.49px;"/>
                </g>
            </g>
        </g>
        <g transform="matrix(0.760872,0,0,0.760872,-431.617,-127.421)">
            <g transform="matrix(0.951526,1.73818e-16,-2.33057e-16,0.709664,553.413,186.281)">
                <path d="M135.157,51.879C135.464,37.441 147.281,25.814 161.793,25.814C176.304,25.814 188.122,37.441 188.429,51.879L135.157,51.879Z" style="fill:rgb(204,153,102);stroke:black;stroke-width:12.49px;"/>
            </g>
        </g>
    </g>
</svg>
