<svg id="Layer_1" enable-background="new 0 0 512 512" height="512" viewBox="0 0 512 512" width="512" xmlns="http://www.w3.org/2000/svg"><g><g><path d="m489.5 467h-97v-26.106l5.776-23.105c.56-2.24.057-4.614-1.365-6.435-1.108-1.419-2.679-2.37-4.411-2.724v-61.804c0-1.895-.509-3.747-1.469-5.351l-12.632-21.141c-1.808-3.027-4.947-4.834-8.399-4.834s-6.592 1.807-8.398 4.832l-12.63 21.138c-.198.332-.365.679-.524 1.03h-12.948v-171.674c0-1.895-.509-3.747-1.469-5.351l-12.632-21.141c-1.808-3.027-4.947-4.834-8.399-4.834s-6.592 1.807-8.398 4.832l-6.925 11.59-7.671-33.462c-.926-4.037-4.948-6.557-8.986-5.635-4.037.926-6.561 4.949-5.635 8.986l9.327 40.689h-7.159c-.159-.349-.324-.695-.522-1.025l-12.632-21.141c-1.808-3.027-4.947-4.834-8.399-4.834s-6.592 1.807-8.398 4.832l-12.63 21.138c-.198.332-.365.679-.524 1.03h-7.159l24.377-106.342 4.335-2.28 4.335 2.279 7.971 34.772c.797 3.474 3.886 5.826 7.304 5.826.555 0 1.119-.062 1.683-.191 4.037-.926 6.561-4.949 5.635-8.986l-7.097-30.961c3.64-2.708 5.425-7.149 4.657-11.633l-1.357-7.914 5.749-5.604c3.289-3.207 4.45-7.912 3.03-12.281-1.419-4.368-5.124-7.492-9.67-8.153l-7.943-1.154-3.552-7.199c-2.035-4.119-6.152-6.679-10.746-6.679s-8.711 2.56-10.742 6.678l-3.553 7.2-7.944 1.154c-4.545.661-8.25 3.785-9.669 8.153-1.42 4.369-.259 9.074 3.03 12.281l5.749 5.604-1.358 7.916c-.767 4.481 1.018 8.922 4.658 11.631l-21.847 95.305-6.924-11.588c-1.808-3.027-4.947-4.834-8.399-4.834s-6.592 1.807-8.398 4.832l-12.63 21.138c-.963 1.609-1.472 3.461-1.472 5.355v52.738c0 4.142 3.357 7.5 7.5 7.5s7.5-3.358 7.5-7.5v-12.063h129v107.576c-1.857-2.257-4.561-3.576-7.5-3.576-3.452 0-6.592 1.807-8.398 4.832l-12.63 21.138c-.198.332-.365.679-.524 1.03h-13.894c-.159-.349-.324-.695-.522-1.025l-12.632-21.141c-1.808-3.027-4.947-4.834-8.399-4.834s-6.592 1.807-8.398 4.832l-12.63 21.138c-.198.332-.365.679-.524 1.03h-13.894c-.159-.349-.324-.695-.522-1.025l-12.632-21.141c-1.808-3.027-4.947-4.834-8.399-4.834-2.939 0-5.644 1.32-7.5 3.576v-63.076c0-4.142-3.357-7.5-7.5-7.5s-7.5 3.358-7.5 7.5v86.5h-12.947c-.159-.349-.324-.695-.522-1.025l-12.632-21.141c-1.808-3.027-4.947-4.834-8.399-4.834s-6.592 1.807-8.398 4.832l-12.63 21.138c-.963 1.609-1.472 3.461-1.472 5.355v61.804c-1.732.354-3.303 1.305-4.411 2.724-1.422 1.82-1.925 4.194-1.365 6.435l5.776 23.105v26.107h-97c-12.409 0-22.503 10.093-22.503 22.5s10.094 22.5 22.5 22.5h467c12.406 0 22.5-10.093 22.5-22.5s-10.094-22.5-22.5-22.5zm-355-79.5h243v20.97h-243zm228-39.427 7.5-12.552 7.5 12.552v24.427h-15zm-15 24.427h-12v-15h12zm-102.066-344.006c3.902-.567 7.274-3.018 9.02-6.554l1.546-3.134 1.547 3.134c1.745 3.537 5.117 5.987 9.02 6.554l3.46.503-2.505 2.442c-2.823 2.752-4.111 6.716-3.444 10.604l.591 3.446-3.095-1.627c-3.489-1.834-7.656-1.833-11.149.001l-3.092 1.626.592-3.447c.666-3.886-.622-7.85-3.445-10.603l-2.505-2.441zm-53.934 143.579 7.5-12.552 7.5 12.552v24.427h-15zm30 9.427h12v15h-12zm27-9.427 7.5-12.552 7.5 12.552v24.427h-15zm30 9.427h12v15h-12zm27 15v-24.427l7.5-12.552 7.5 12.552v24.427zm0 151.573 7.5-12.552 7.5 12.552v24.427h-15zm-15 24.427h-12v-15h12zm-42-24.427 7.5-12.552 7.5 12.552v24.427h-15zm-15 24.427h-12v-15h12zm-34.5-36.979 7.5 12.552v24.427h-15v-24.427zm-22.5 36.979h-12v-15h12zm-42-24.427 7.5-12.552 7.5 12.552v24.427h-15zm0 99.397h185.885c4.143 0 7.5-3.358 7.5-7.5s-3.357-7.5-7.5-7.5h-187.53l-2.25-9h250.789l-2.25 9h-26.554c-4.143 0-7.5 3.358-7.5 7.5s3.357 7.5 7.5 7.5h24.91v19.53h-243zm355 49.53h-467c-4.136 0-7.5-3.364-7.5-7.5s3.364-7.5 7.5-7.5h467c4.136 0 7.5 3.364 7.5 7.5s-3.364 7.5-7.5 7.5z"/><path d="m256 312.395c25.641 0 46.5-20.86 46.5-46.5s-20.859-46.5-46.5-46.5-46.5 20.86-46.5 46.5 20.859 46.5 46.5 46.5zm0-78c17.369 0 31.5 14.131 31.5 31.5s-14.131 31.5-31.5 31.5-31.5-14.131-31.5-31.5 14.131-31.5 31.5-31.5z"/></g></g></svg>