<?xml version="1.0" encoding="UTF-8" standalone="no"?>
<!DOCTYPE svg PUBLIC "-//W3C//DTD SVG 1.1//EN" "http://www.w3.org/Graphics/SVG/1.1/DTD/svg11.dtd">
<svg width="100%" height="100%" viewBox="0 0 318 424" version="1.1" xmlns="http://www.w3.org/2000/svg" xmlns:xlink="http://www.w3.org/1999/xlink" xml:space="preserve" xmlns:serif="http://www.serif.com/" style="fill-rule:evenodd;clip-rule:evenodd;stroke-linejoin:round;stroke-miterlimit:2;">
    <g transform="matrix(1,0,0,1,-97.1011,-44.1348)">
        <g transform="matrix(0.827598,0,0,0.827598,44.1348,44.1348)">
            <path d="M256,0C150.112,0 64,86.112 64,192C64,325.088 237.312,499.936 244.672,507.328C247.808,510.432 251.904,512 256,512C260.096,512 264.192,510.432 267.328,507.328C274.688,499.936 448,325.088 448,192C448,86.112 361.888,0 256,0Z" style="fill:rgb(5,103,192);fill-rule:nonzero;"/>
        </g>
        <g transform="matrix(0.36761,0,0,0.36761,157.892,126.155)">
            <g transform="matrix(1.0391,0,0,1.0391,-10.0102,-10.0102)">
                <path d="M293.214,240.704L293.214,272.067C293.214,280.351 299.93,287.067 308.214,287.067C341.713,287.067 370.403,266.169 381.989,236.734L315.958,236.734C307.978,236.733 300.321,238.139 293.214,240.704Z" style="fill:white;fill-rule:nonzero;"/>
                <path d="M475.847,159.584C475.847,138.608 462.069,120.79 443.079,114.703C436.657,50.388 382.226,0 316.247,0L315.958,0C197.107,0 100.414,96.692 100.414,215.552C100.414,332.531 194.085,428.044 310.359,431.024C317.296,476.802 356.913,512 404.598,512L420.681,512C428.965,512 435.681,505.284 435.681,497L435.681,480.933C435.681,454.331 422.495,430.766 402.331,416.381C422.495,401.996 435.681,378.431 435.681,351.829L435.681,336.333C435.681,328.049 428.965,321.333 420.681,321.333L404.036,321.333C356.945,321.333 317.773,355.865 310.498,400.941C259.285,398.112 218.781,355.752 218.781,303.91C218.781,250.159 262.287,206.733 315.959,206.733L428.715,206.733C454.652,206.733 475.847,185.765 475.847,159.584ZM356.414,126.4C348.134,126.4 341.414,119.68 341.414,111.4C341.414,103.12 348.134,96.4 356.414,96.4C364.694,96.4 371.414,103.12 371.414,111.4C371.414,119.68 364.694,126.4 356.414,126.4Z" style="fill:white;fill-rule:nonzero;"/>
                <path d="M167.554,20.062C123.719,7.297 74.685,18.45 40.541,52.594C36.251,56.884 34.976,63.336 37.297,68.941C39.618,74.546 45.096,78.201 51.163,78.201C70.945,78.201 88.03,89.931 95.856,106.795C112.802,72.636 137.463,42.961 167.554,20.062Z" style="fill:white;fill-rule:nonzero;"/>
            </g>
        </g>
    </g>
</svg>
