<?xml version="1.0" encoding="UTF-8" standalone="no"?>
<!DOCTYPE svg PUBLIC "-//W3C//DTD SVG 1.1//EN" "http://www.w3.org/Graphics/SVG/1.1/DTD/svg11.dtd">
<svg width="100%" height="100%" viewBox="0 0 353 336" version="1.1" xmlns="http://www.w3.org/2000/svg" xmlns:xlink="http://www.w3.org/1999/xlink" xml:space="preserve" xmlns:serif="http://www.serif.com/" style="fill-rule:evenodd;clip-rule:evenodd;stroke-linecap:round;stroke-linejoin:round;stroke-miterlimit:1.5;">
    <g transform="matrix(1,0,0,1,-98.2781,-89.1179)">
        <path d="M271.746,102.095L219.937,203.683L108.19,222.984L191.492,296.127L151.873,407.873L275.81,344.889L399.746,412.952L359.111,297.143L436.317,228.063L331.683,205.714L271.746,102.095Z" style="fill:rgb(205,6,20);stroke:black;stroke-width:1px;"/>
        <g transform="matrix(1,0,0,1,18.2857,-79.2381)">
            <path d="M425.136,296.08L317.28,280.672L263.152,172.424C260.44,167 251.552,167 248.84,172.424L194.72,280.672L86.864,296.08C83.72,296.528 81.144,298.792 80.288,301.848C79.432,304.904 80.472,308.176 82.928,310.184L166.392,378.472L120.568,493.024C119.312,496.176 120.176,499.776 122.728,502.016C125.28,504.264 128.96,504.64 131.92,502.976L256,433.176L380.08,502.968C381.304,503.664 382.656,504 384,504C385.896,504 387.776,503.328 389.272,502.016C391.824,499.784 392.688,496.184 391.432,493.024L345.608,378.48L429.072,310.192C431.528,308.184 432.568,304.912 431.712,301.856C430.856,298.8 428.272,296.528 425.136,296.08ZM310.864,295.92L381.472,306.008L264,341.248L264,209.888L304.84,291.576C306.016,293.928 308.272,295.544 310.864,295.92ZM201.136,295.92C203.736,295.552 205.984,293.928 207.16,291.584L248,209.888L248,341.248L130.528,306.008L201.136,295.92ZM181.064,369.808L119.432,319.384L241.68,356.056L152.424,456.472L183.424,378.968C184.728,375.728 183.768,372.016 181.064,369.808ZM256,416C254.648,416 253.296,416.344 252.08,417.024L165.728,465.6L256,364.048L346.272,465.6L259.92,417.024C258.704,416.344 257.352,416 256,416ZM328.568,378.976L359.568,456.48L270.312,356.056L392.56,319.384L330.928,369.808C328.232,372.016 327.272,375.728 328.568,378.976Z" style="fill-rule:nonzero;"/>
        </g>
    </g>
</svg>
