<?xml version="1.0" encoding="UTF-8" standalone="no"?>
<!DOCTYPE svg PUBLIC "-//W3C//DTD SVG 1.1//EN" "http://www.w3.org/Graphics/SVG/1.1/DTD/svg11.dtd">
<svg width="100%" height="100%" viewBox="0 0 318 424" version="1.1" xmlns="http://www.w3.org/2000/svg" xmlns:xlink="http://www.w3.org/1999/xlink" xml:space="preserve" xmlns:serif="http://www.serif.com/" style="fill-rule:evenodd;clip-rule:evenodd;stroke-linejoin:round;stroke-miterlimit:2;">
    <g transform="matrix(1,0,0,1,-97.1011,-44.1348)">
        <g transform="matrix(0.827598,0,0,0.827598,44.1348,44.1348)">
            <path d="M256,0C150.112,0 64,86.112 64,192C64,325.088 237.312,499.936 244.672,507.328C247.808,510.432 251.904,512 256,512C260.096,512 264.192,510.432 267.328,507.328C274.688,499.936 448,325.088 448,192C448,86.112 361.888,0 256,0Z" style="fill:rgb(194,76,53);fill-rule:nonzero;"/>
        </g>
        <g transform="matrix(0.451452,0,0,0.451452,149.188,122.161)">
            <path d="M464.653,167.757C463.829,164.484 461.657,161.72 458.684,160.124C455.719,158.538 452.214,158.269 449.034,159.386C421.154,169.181 378.138,175.484 329.758,175.484C317.996,175.484 306.66,175.035 295.669,174.328C289.986,200.004 280.905,223.58 269.306,244.344C269.87,244.321 270.409,244.229 270.978,244.229C286.012,244.229 298.196,242.975 298.196,253.102C298.196,263.229 286.011,280.905 270.978,280.905C262.221,280.905 254.511,278.071 249.536,273.743C234.511,292.397 216.958,307.106 197.627,316.833C219.422,390.194 270.378,441.657 329.758,441.657C408.977,441.657 473.195,350.073 473.195,237.098C473.194,212.728 470.151,189.408 464.653,167.757ZM386.92,381.927C386.666,383.005 385.864,383.884 384.81,384.23C383.754,384.583 382.592,384.361 381.744,383.644C370.57,374.255 351.562,368.017 329.759,368.017C307.954,368.017 288.946,374.255 277.773,383.644C276.924,384.353 275.761,384.576 274.707,384.23C273.652,383.876 272.851,383.005 272.597,381.927C271.672,377.991 271.103,373.933 271.103,369.712C271.103,337.317 297.366,311.056 329.76,311.056C362.154,311.056 388.415,337.318 388.415,369.712C388.413,373.933 387.844,377.992 386.92,381.927ZM388.537,280.904C373.503,280.904 361.319,263.228 361.319,253.101C361.319,242.974 373.504,244.228 388.537,244.228C403.57,244.228 415.755,252.439 415.755,262.566C415.754,272.693 403.57,280.904 388.537,280.904Z" style="fill:white;fill-rule:nonzero;"/>
        </g>
        <g transform="matrix(0.451452,0,0,0.451452,149.188,122.161)">
            <path d="M286.874,109.925C286.874,85.558 283.831,62.237 278.333,40.587C277.509,37.314 275.337,34.548 272.364,32.954C270.608,32.015 268.659,31.538 266.695,31.538C265.354,31.538 264.007,31.759 262.714,32.216C234.834,42.011 191.819,48.312 143.438,48.312C95.056,48.312 52.041,42.011 24.161,32.216C22.875,31.759 21.535,31.538 20.195,31.538C18.232,31.538 16.274,32.02 14.51,32.962C11.545,34.556 9.366,37.321 8.541,40.587C3.043,62.238 0,85.558 0,109.925C0,222.902 64.217,314.484 143.438,314.484C222.657,314.484 286.874,222.902 286.874,109.925ZM57.439,135.349C57.439,125.22 69.624,117.011 84.658,117.011C99.691,117.011 111.876,134.685 111.876,144.814C111.876,154.941 99.691,153.687 84.658,153.687C69.624,153.687 57.439,145.476 57.439,135.349ZM143.438,275.812C111.043,275.812 84.782,249.55 84.782,217.158C84.782,212.937 85.351,208.877 86.275,204.941C86.529,203.865 87.331,202.994 88.385,202.638C89.441,202.292 90.603,202.515 91.451,203.224C102.625,212.613 121.633,218.851 143.437,218.851C165.241,218.851 184.249,212.613 195.422,203.224C196.271,202.507 197.433,202.285 198.488,202.638C199.543,202.986 200.344,203.865 200.598,204.941C201.522,208.877 202.092,212.937 202.092,217.158C202.093,249.55 175.831,275.812 143.438,275.812ZM174.998,144.814C174.998,134.685 187.183,117.011 202.217,117.011C217.25,117.011 229.435,125.22 229.435,135.349C229.435,145.476 217.25,153.687 202.217,153.687C187.183,153.687 174.998,154.941 174.998,144.814Z" style="fill:white;fill-rule:nonzero;"/>
        </g>
    </g>
</svg>
