<?xml version="1.0" encoding="UTF-8" standalone="no"?>
<!DOCTYPE svg PUBLIC "-//W3C//DTD SVG 1.1//EN" "http://www.w3.org/Graphics/SVG/1.1/DTD/svg11.dtd">
<svg width="100%" height="100%" viewBox="0 0 318 424" version="1.1" xmlns="http://www.w3.org/2000/svg" xmlns:xlink="http://www.w3.org/1999/xlink" xml:space="preserve" xmlns:serif="http://www.serif.com/" style="fill-rule:evenodd;clip-rule:evenodd;stroke-linejoin:round;stroke-miterlimit:2;">
    <g transform="matrix(1,0,0,1,2.8e-05,0)">
        <g transform="matrix(1,0,0,1,-97.1011,-44.1348)">
            <g transform="matrix(0.827598,0,0,0.827598,44.1348,44.1348)">
                <path d="M256,0C150.112,0 64,86.112 64,192C64,325.088 237.312,499.936 244.672,507.328C247.808,510.432 251.904,512 256,512C260.096,512 264.192,510.432 267.328,507.328C274.688,499.936 448,325.088 448,192C448,86.112 361.888,0 256,0Z" style="fill:rgb(198,39,66);fill-rule:nonzero;"/>
            </g>
        </g>
        <g transform="matrix(1,0,0,1,-97.1011,-44.1348)">
            <g id="_020---Soviet-Russia" serif:id="020---Soviet-Russia" transform="matrix(0.441361,0,0,0.441361,139.245,92.7735)">
                <path id="Shape" d="M196.779,447.829C200.407,447.845 203.648,445.564 204.859,442.143C206.07,438.723 204.985,434.911 202.155,432.64C185.941,419.413 160.085,392.533 160.085,375.467C160.085,370.754 156.265,366.933 151.552,366.933C146.839,366.933 143.019,370.754 143.019,375.467C143.019,395.093 160.768,416.853 174.848,431.189L151.552,431.189C118.869,431.189 84.821,405.589 84.48,405.589C82.041,403.745 78.803,403.342 75.987,404.532C73.17,405.722 71.202,408.324 70.824,411.358C70.446,414.393 71.716,417.398 74.155,419.243C75.691,420.437 112.981,448.512 151.552,448.512L196.779,447.829Z" style="fill:white;fill-rule:nonzero;"/>
                <path id="Shape1" serif:id="Shape" d="M131.669,388.779C123.071,374.745 123.071,357.074 131.669,343.04C132.931,341.152 133.389,338.839 132.94,336.613C132.492,334.386 131.175,332.431 129.28,331.179C127.382,329.925 125.061,329.481 122.834,329.945C120.607,330.41 118.657,331.745 117.419,333.653C108.409,347.155 105.642,363.879 109.824,379.563C88.491,371.541 53.333,353.963 42.155,326.059C41.336,323.937 39.703,322.23 37.621,321.317C35.538,320.404 33.177,320.36 31.061,321.195C28.955,322.03 27.268,323.669 26.372,325.75C25.475,327.831 25.443,330.183 26.283,332.288C45.653,381.696 119.467,401.067 122.368,401.664C125.769,402.54 129.359,401.242 131.415,398.395C133.47,395.547 133.571,391.731 131.669,388.779Z" style="fill:white;fill-rule:nonzero;"/>
                <path id="Shape2" serif:id="Shape" d="M83.541,345.429C86.159,347.198 89.539,347.377 92.328,345.893C95.117,344.409 96.858,341.506 96.853,338.347C96.853,329.813 99.413,305.579 110.251,300.117C114.469,297.997 116.169,292.858 114.048,288.64C111.927,284.422 106.789,282.722 102.571,284.843C89.429,291.499 83.883,307.627 81.493,320.427C65.453,299.458 52.175,276.514 41.984,252.16C40.969,249.127 38.343,246.916 35.182,246.433C32.02,245.95 28.854,247.275 26.979,249.866C25.104,252.457 24.835,255.879 26.283,258.731C27.392,261.803 54.699,325.888 83.541,345.429Z" style="fill:white;fill-rule:nonzero;"/>
                <path id="Shape3" serif:id="Shape" d="M111.616,229.803C99.221,237.316 88.433,247.205 79.872,258.901C67.942,238.422 61.368,215.266 60.757,191.573C60.757,186.861 56.937,183.04 52.224,183.04C47.511,183.04 43.691,186.861 43.691,191.573C44.59,222.954 54.58,253.398 72.448,279.211C74.044,281.497 76.657,282.86 79.445,282.86C82.234,282.86 84.847,281.497 86.443,279.211C91.136,272.128 106.155,252.16 119.296,245.077C123.514,242.957 125.214,237.818 123.093,233.6C120.973,229.382 115.834,227.682 111.616,229.803Z" style="fill:white;fill-rule:nonzero;"/>
                <path id="Shape4" serif:id="Shape" d="M115.456,183.04C107.676,182.78 99.964,184.575 93.099,188.245C92.196,177.886 93.326,167.451 96.427,157.525C97.686,153.113 95.23,148.495 90.868,147.071C86.506,145.648 81.799,147.929 80.213,152.235C74.417,171.927 74.417,192.873 80.213,212.565C81.521,216.544 85.523,218.986 89.66,218.328C93.796,217.671 96.844,214.108 96.853,209.92C96.853,209.92 96.853,200.107 115.456,200.107C120.169,200.107 123.989,196.286 123.989,191.573C123.989,186.861 120.169,183.04 115.456,183.04Z" style="fill:white;fill-rule:nonzero;"/>
                <path id="Shape5" serif:id="Shape" d="M153.6,145.067C156.649,144.335 159.075,142.032 159.966,139.026C160.857,136.02 160.076,132.767 157.918,130.493C155.76,128.219 152.553,127.268 149.504,128C108.117,138.496 106.837,161.28 106.837,163.84C106.837,168.553 110.658,172.373 115.371,172.373C119.86,172.384 123.59,168.915 123.904,164.437C123.904,164.437 125.525,151.979 153.6,145.067Z" style="fill:white;fill-rule:nonzero;"/>
                <path id="Shape6" serif:id="Shape" d="M410.368,458.837C398.677,463.616 363.776,474.539 344.064,467.883C308.139,455.68 302.848,447.915 264.533,474.965C226.133,447.915 220.672,455.765 185.003,467.883C165.291,474.539 130.475,463.616 118.699,458.837C114.316,457.046 109.311,459.148 107.52,463.531C105.729,467.914 107.83,472.918 112.213,474.709C114.176,475.477 160.683,494.08 190.464,484.011C221.696,473.429 223.147,466.944 250.197,485.632C245.277,489.308 240.576,493.269 236.117,497.493C233.24,500.899 233.47,505.946 236.645,509.077C239.82,512.207 244.87,512.365 248.235,509.44C248.235,509.44 253.013,504.832 264.789,496.043C270.551,500.2 276.077,504.672 281.344,509.44C283.413,511.889 286.679,512.972 289.801,512.244C292.922,511.516 295.373,509.1 296.145,505.989C296.917,502.878 295.881,499.596 293.461,497.493C289.003,493.269 284.302,489.308 279.381,485.632C306.176,467.115 307.627,473.515 339.115,484.011C368.896,494.08 415.403,475.477 417.365,474.709C420.201,473.551 422.202,470.968 422.617,467.933C423.031,464.898 421.795,461.873 419.374,459.997C416.953,458.121 413.715,457.679 410.88,458.837L410.368,458.837Z" style="fill:white;fill-rule:nonzero;"/>
                <path id="Shape7" serif:id="Shape" d="M444.587,404.907C444.587,404.907 410.453,430.507 377.515,430.507L354.219,430.507C368.299,416.171 386.048,394.411 386.048,374.784C386.048,370.071 382.227,366.251 377.515,366.251C372.802,366.251 368.981,370.071 368.981,374.784C368.981,391.851 343.381,419.157 326.912,432.384C324.082,434.655 322.997,438.467 324.208,441.887C325.418,445.308 328.66,447.589 332.288,447.573L377.515,447.573C416.085,447.573 453.376,419.499 454.912,418.304C458.682,415.453 459.427,410.085 456.576,406.315C453.725,402.544 448.357,401.799 444.587,404.651L444.587,404.907Z" style="fill:white;fill-rule:nonzero;"/>
                <path id="Shape8" serif:id="Shape" d="M498.091,321.195C495.975,320.36 493.614,320.404 491.531,321.317C489.449,322.23 487.816,323.937 486.997,326.059C475.904,354.304 440.661,371.456 419.328,379.563C423.51,363.879 420.743,347.155 411.733,333.653C410.081,331.051 407.153,329.543 404.075,329.707C400.997,329.872 398.247,331.683 396.881,334.446C395.515,337.209 395.745,340.494 397.483,343.04C406.027,357.059 406.027,374.675 397.483,388.693C395.544,391.633 395.61,395.463 397.65,398.334C399.69,401.205 403.284,402.527 406.699,401.664C409.771,400.896 483.499,381.696 502.869,332.288C503.709,330.183 503.677,327.831 502.78,325.75C501.884,323.669 500.197,322.03 498.091,321.195Z" style="fill:white;fill-rule:nonzero;"/>
                <path id="Shape9" serif:id="Shape" d="M487.083,252.501C476.926,276.872 463.645,299.82 447.573,320.768C445.184,307.968 439.637,291.84 426.496,285.184C423.767,283.812 420.514,284 417.962,285.677C415.409,287.354 413.946,290.266 414.122,293.314C414.298,296.363 416.087,299.087 418.816,300.459C429.653,305.92 432.213,330.496 432.213,338.688C432.209,341.847 433.95,344.75 436.738,346.234C439.527,347.718 442.908,347.54 445.525,345.771C474.368,326.229 501.675,262.144 502.784,259.413C504.232,256.561 503.963,253.139 502.088,250.548C500.213,247.957 497.047,246.632 493.885,247.116C490.724,247.599 488.098,249.81 487.083,252.843L487.083,252.501Z" style="fill:white;fill-rule:nonzero;"/>
                <path id="Shape10" serif:id="Shape" d="M409.6,245.077C422.656,251.733 437.76,271.701 442.453,279.211C444.049,281.497 446.662,282.86 449.451,282.86C452.239,282.86 454.852,281.497 456.448,279.211C474.316,253.398 484.306,222.954 485.205,191.573C485.205,186.861 481.385,183.04 476.672,183.04C471.959,183.04 468.139,186.861 468.139,191.573C467.503,215.262 460.93,238.412 449.024,258.901C440.463,247.205 429.675,237.316 417.28,229.803C414.551,228.431 411.298,228.619 408.746,230.296C406.193,231.973 404.73,234.884 404.906,237.933C405.082,240.982 406.871,243.705 409.6,245.077Z" style="fill:white;fill-rule:nonzero;"/>
                <path id="Shape11" serif:id="Shape" d="M413.611,200.107C430.677,200.107 432.128,208.64 432.213,209.92C431.483,214.633 434.711,219.046 439.424,219.776C444.137,220.506 448.55,217.278 449.28,212.565C455.076,192.873 455.076,171.927 449.28,152.235C448.422,149.23 445.991,146.934 442.942,146.25C439.893,145.566 436.714,146.603 434.655,148.954C432.596,151.305 431.987,154.593 433.067,157.525C436.092,167.466 437.221,177.887 436.395,188.245C429.529,184.575 421.818,182.78 414.037,183.04C409.325,183.04 405.504,186.861 405.504,191.573C405.504,196.286 409.325,200.107 414.037,200.107L413.611,200.107Z" style="fill:white;fill-rule:nonzero;"/>
                <path id="Shape12" serif:id="Shape" d="M375.467,145.067C402.859,151.979 405.077,163.925 405.163,164.693C405.163,169.406 408.983,173.227 413.696,173.227C418.409,173.227 422.229,169.406 422.229,164.693C422.229,162.133 421.035,139.093 379.563,128.853C375.511,128.665 371.887,131.355 370.894,135.287C369.9,139.22 371.812,143.308 375.467,145.067Z" style="fill:white;fill-rule:nonzero;"/>
                <path id="Shape13" serif:id="Shape" d="M371.371,103.253C374.866,100.594 376.317,96.028 374.997,91.839C373.677,87.651 369.871,84.74 365.483,84.565L302.848,84.565C298.458,84.518 294.614,81.609 293.376,77.397L274.005,15.701C272.847,11.424 268.965,8.454 264.533,8.454C260.102,8.454 256.22,11.424 255.061,15.701L235.691,77.397C234.453,81.609 230.609,84.518 226.219,84.565L163.584,84.565C159.196,84.74 155.389,87.651 154.07,91.839C152.75,96.028 154.201,100.594 157.696,103.253L208.384,141.397C211.89,144.134 213.348,148.748 212.053,153.003L192.683,214.699C191.22,218.828 192.594,223.429 196.082,226.079C199.57,228.729 204.371,228.82 207.957,226.304L258.645,187.733C262.153,185.172 266.914,185.172 270.421,187.733L321.109,225.963C324.695,228.479 329.496,228.388 332.984,225.738C336.472,223.087 337.847,218.486 336.384,214.357L317.013,152.661C315.718,148.406 317.177,143.793 320.683,141.056L371.371,103.253Z" style="fill:white;fill-rule:nonzero;"/>
            </g>
        </g>
    </g>
</svg>
