<?xml version="1.0" encoding="UTF-8" standalone="no"?>
<!DOCTYPE svg PUBLIC "-//W3C//DTD SVG 1.1//EN" "http://www.w3.org/Graphics/SVG/1.1/DTD/svg11.dtd">
<svg width="100%" height="100%" viewBox="0 0 713 713" version="1.1" xmlns="http://www.w3.org/2000/svg" xmlns:xlink="http://www.w3.org/1999/xlink" xml:space="preserve" xmlns:serif="http://www.serif.com/" style="fill-rule:evenodd;clip-rule:evenodd;stroke-linecap:round;stroke-linejoin:round;stroke-miterlimit:1.5;">
    <g transform="matrix(1,0,0,1,-849.826,-113.144)">
        <g>
            <path d="M1030.18,428.755L896.324,395.291L862.86,455.526L984.669,506.391L944.512,531.824L969.945,589.382L1200.18,478.281L1180.1,703.16L1208.21,715.207L1233.64,696.467L1330.02,416.708L1520.09,331.04L1550.88,286.867L1545.53,248.049L1502.69,223.955L1433.09,242.695L1256.4,328.363L1206.87,314.977L1012.78,241.356L977.976,262.773L998.055,288.206L1125.22,377.889L1099.79,399.306L1030.18,428.755Z" style="fill:white;stroke:black;stroke-width:17.73px;"/>
            <g id="marker2Aero" transform="matrix(1,0,0,1,1206.33,469.644)">
                <g transform="matrix(1,0,0,1,-356.5,-356.5)">
                    <path d="M84.996,405.355C78.858,408.235 76.15,415.485 78.886,421.681L106.922,481.868C108.3,484.865 110.813,487.198 113.903,488.349C115.257,488.841 116.693,489.095 118.137,489.095C119.944,489.11 121.727,488.724 123.37,487.979L335.201,389.036L316.014,589.649C315.644,593.598 317.166,597.48 320.119,600.118C329.407,607.805 340.98,612.183 353.022,612.578C356.343,612.574 359.644,612.156 362.863,611.337C380.06,606.849 393.394,591.526 402.49,565.354L485.851,318.513L650.95,241.5C699.547,218.825 724.591,172.846 707.773,136.958C698.229,118.201 679.947,105.441 659.051,102.939C635.833,99.435 612.105,103.088 591.017,113.413L400.492,202.752L195.645,122.629C169.848,112.913 149.417,113.163 135.088,123.507C123.066,133.372 116.225,148.2 116.518,163.75C116.643,167.695 118.629,171.344 121.875,173.599L259.812,268.421L180.817,305.803L48.355,272.155C42.927,270.821 37.277,273.267 34.526,278.137L1.51,337.571C-0.203,340.72 -0.472,344.458 0.773,347.822C2.01,351.189 4.64,353.854 7.992,355.142L106.056,395.642L84.996,405.355ZM142.057,157.522C142.791,152.254 145.456,147.459 149.538,144.064C156.643,138.952 169.602,139.701 186.92,146.179L369.345,217.33L286.105,256.207L142.057,157.522ZM29.918,337.45L51.598,298.947L179.069,330.594C181.816,331.288 184.715,331.027 187.299,329.852L601.612,136.338C618.083,128.213 636.633,125.256 654.817,127.862C667.569,129.037 678.929,136.396 685.223,147.548C695.68,169.982 675.124,202.752 640.356,218.95L496.812,286.242L505.537,260.441C507.742,253.804 504.14,246.631 497.503,244.431C490.857,242.23 483.689,245.832 481.488,252.469L378.936,557.624C372.829,574.949 365.228,585.294 356.757,587.53C351.508,588.54 346.076,587.51 341.554,584.67L366.477,322.992C367.128,316.113 362.083,310.006 355.196,309.354C348.316,308.695 342.209,313.748 341.554,320.628L337.695,360.625L123.865,460.308L106.306,422.926L141.437,406.482C145.959,404.488 148.874,400.017 148.874,395.08C148.874,390.14 145.959,385.668 141.437,383.678L29.918,337.45Z" style="fill-rule:nonzero;"/>
                </g>
            </g>
        </g>
    </g>
</svg>
