<?xml version="1.0" encoding="UTF-8" standalone="no"?>
<!DOCTYPE svg PUBLIC "-//W3C//DTD SVG 1.1//EN" "http://www.w3.org/Graphics/SVG/1.1/DTD/svg11.dtd">
<svg width="100%" height="100%" viewBox="0 0 440 512" version="1.1" xmlns="http://www.w3.org/2000/svg" xmlns:xlink="http://www.w3.org/1999/xlink" xml:space="preserve" xmlns:serif="http://www.serif.com/" style="fill-rule:evenodd;clip-rule:evenodd;stroke-linejoin:round;stroke-miterlimit:2;">
    <g transform="matrix(1,0,0,1,-36.1531,0)">
        <g transform="matrix(1,0,0,1,-383.174,-189.236)">
            <path d="M809.882,304.938L795.158,252.734L749.647,216.593L688.073,199.191L601.067,227.301L562.249,227.301L508.706,217.931L465.872,228.64L441.778,250.057L472.565,266.12L496.659,306.276L502.013,389.267L522.092,495.013L565.017,557.812L608.289,586.361L673.047,608.239L706.791,615.741L722.876,648.948L744.293,673.042L779.096,681.073L807.205,685.089L796.497,646.271L771.064,610.13L789.804,584.697L807.205,545.879L807.205,520.446L764.371,525.8L733.584,549.894L711.29,576.734L707.343,599.278L677.955,596.207L630.584,580.856L600.758,540.941L589.354,502.781L588.915,474.271L602.513,437.427L628.391,410.671L661.288,390.933L686.728,383.915L691.114,417.689L691.114,453.217L695.061,463.744L728.396,449.27L749.012,425.146L756.093,383.91L799.891,382.6L824.454,378.652L840.683,358.476L842.437,333.474L827.963,319.877L809.882,304.938" style="fill:rgb(163,205,255);"/>
            <g transform="matrix(1,0,0,1,383.174,189.236)">
                <g id="marker3DomFizkult">
                    <g>
                        <path d="M308.214,287.067C351.922,287.067 387.481,251.508 387.481,207.8L387.481,206.734L428.714,206.734C454.684,206.734 475.847,185.73 475.847,159.585C475.847,138.609 462.069,120.791 443.079,114.704C436.657,50.388 382.226,0 316.247,0L315.958,0C273.049,0 233.032,12.608 199.407,34.307C149.138,3.018 83.159,9.976 40.541,52.594C36.251,56.884 34.976,63.336 37.297,68.941C39.618,74.546 45.096,78.201 51.163,78.201C78.32,78.201 100.413,100.295 100.413,127.451C100.413,127.451 100.418,215.896 100.418,215.928C100.619,332.736 194.209,428.047 310.358,431.024C317.296,476.802 356.913,512 404.598,512L420.681,512C428.965,512 435.681,505.284 435.681,497L435.681,480.933C435.681,454.331 422.495,430.766 402.331,416.381C422.495,401.996 435.681,378.431 435.681,351.829L435.681,336.333C435.681,328.049 428.965,321.333 420.681,321.333L404.036,321.333C356.945,321.333 317.774,355.865 310.498,400.94C259.431,398.13 218.781,355.89 218.781,303.91C218.781,240.966 270.072,214.925 293.215,209.401L293.215,272.066C293.214,280.351 299.93,287.067 308.214,287.067ZM404.035,351.333L405.68,351.333L405.68,351.829C405.68,378.995 383.579,401.096 356.413,401.096L341.031,401.096C347.813,372.594 373.488,351.333 404.035,351.333ZM356.414,431.667C383.58,431.667 405.681,453.768 405.681,480.934L405.681,482L404.598,482C373.739,482 347.81,460.491 341.017,431.667L356.414,431.667ZM357.481,207.8C357.481,229.738 343.068,248.373 323.214,254.733L323.214,206.734L357.481,206.734L357.481,207.8ZM85.759,56.16C129.517,33.254 168.722,52.077 173.13,54.128C155.3,69.939 140.076,88.692 128.335,109.378C122.848,85.941 106.928,66.475 85.759,56.16ZM188.78,303.919C188.78,324.754 193.756,344.822 203.147,362.771C158.948,328.825 130.414,275.458 130.414,215.544C130.414,113.235 213.649,30 315.958,30L316.247,30C369.99,30 413.714,73.724 413.714,127.467C413.714,135.751 420.446,142.467 428.73,142.467C438.168,142.467 445.847,150.146 445.847,159.6C445.847,164.177 444.066,168.475 440.826,171.712C437.588,174.95 433.286,176.733 428.714,176.733L315.958,176.733C245.723,176.733 188.78,233.557 188.78,303.919Z" style="fill-rule:nonzero;"/>
                        <circle cx="356.417" cy="111.4" r="15"/>
                    </g>
                </g>
            </g>
        </g>
    </g>
</svg>
