<?xml version="1.0" encoding="UTF-8" standalone="no"?>
<!DOCTYPE svg PUBLIC "-//W3C//DTD SVG 1.1//EN" "http://www.w3.org/Graphics/SVG/1.1/DTD/svg11.dtd">
<svg width="100%" height="100%" viewBox="0 0 318 424" version="1.1" xmlns="http://www.w3.org/2000/svg" xmlns:xlink="http://www.w3.org/1999/xlink" xml:space="preserve" xmlns:serif="http://www.serif.com/" style="fill-rule:evenodd;clip-rule:evenodd;stroke-linejoin:round;stroke-miterlimit:2;">
    <g transform="matrix(1,0,0,1,-97.1011,-44.1348)">
        <g transform="matrix(0.827598,0,0,0.827598,44.1348,44.1348)">
            <path d="M256,0C150.112,0 64,86.112 64,192C64,325.088 237.312,499.936 244.672,507.328C247.808,510.432 251.904,512 256,512C260.096,512 264.192,510.432 267.328,507.328C274.688,499.936 448,325.088 448,192C448,86.112 361.888,0 256,0Z" style="fill:rgb(64,73,164);fill-rule:nonzero;"/>
        </g>
        <g transform="matrix(0.301041,0,0,0.301041,148.678,110.142)">
            <path d="M85,405.355C78.862,408.235 76.154,415.485 78.89,421.681L106.926,481.868C108.304,484.865 110.817,487.198 113.907,488.349C115.261,488.841 116.697,489.095 118.141,489.095C119.948,489.11 121.731,488.724 123.374,487.979L335.205,389.036L316.018,589.649C315.648,593.598 317.17,597.48 320.123,600.118C329.411,607.805 340.984,612.183 353.026,612.578C356.347,612.574 359.648,612.156 362.867,611.337C380.064,606.849 393.398,591.526 402.494,565.354L485.855,318.513L650.954,241.5C699.551,218.825 724.595,172.846 707.777,136.958C698.233,118.201 679.951,105.441 659.055,102.939C635.837,99.435 612.109,103.088 591.021,113.413L400.496,202.752L195.649,122.629C169.852,112.913 149.421,113.163 135.092,123.507C123.07,133.372 116.229,148.2 116.522,163.75C116.647,167.695 118.633,171.344 121.879,173.599L259.816,268.421L180.821,305.803L48.359,272.155C42.931,270.821 37.281,273.267 34.53,278.137L1.514,337.571C-0.199,340.72 -0.468,344.458 0.777,347.822C2.014,351.189 4.644,353.854 7.996,355.142L106.06,395.642L85,405.355Z" style="fill:white;fill-rule:nonzero;"/>
        </g>
    </g>
</svg>
