<?xml version="1.0"?>
<svg xmlns="http://www.w3.org/2000/svg" viewBox="0 0 512 512" width="512" height="512"><g id="solid"><path d="M100.439,366.355,83.006,396.869a17.926,17.926,0,0,0-2.3,10.561l6.6,72.57H96V432a8,8,0,0,1,.647-3.152l11.534-26.9-3.839-30.711Z"/><path d="M296.64,364.623l7.3,58.385A8.019,8.019,0,0,1,304,424v56h16V408a7.923,7.923,0,0,1,.049-.884l6.445-58q-5.808,3.471-11.887,6.519Z"/><path d="M59.463,283.153A28.756,28.756,0,0,0,62.7,304.94l10.576,17.632c.264-.332.518-.671.777-1.006A76.191,76.191,0,0,1,72,304.05V292.28a75.922,75.922,0,0,1,5.809-29.191c.037-.089.079-.174.116-.262l-2.453,1.115A28.59,28.59,0,0,0,59.463,283.153Z"/><path d="M318.83,152h4.889l3.587-5.381-5.933-5.931A16.106,16.106,0,0,0,310.06,136h-9.113l3.578,7.151A15.9,15.9,0,0,0,318.83,152Z"/><path d="M376,232H344a8,8,0,0,1-7.155-4.422l-11.713-23.426L308.271,216.8a36.218,36.218,0,0,1-21.6,7.2H258.39a56,56,0,0,0-17.714,2.871l-5.832,1.947A61.978,61.978,0,0,1,215.24,232H148.28A60.287,60.287,0,0,0,88,292.28v11.77A60.3,60.3,0,0,0,101.208,341.7L118.246,363a8,8,0,0,1,1.692,4.006l4.4,35.178c0,.04.011.079.014.119l3.309,26.465a8.151,8.151,0,0,0,.586,2.165L149.275,480H160v-6.88L144.308,418.2A8.013,8.013,0,0,1,144,416V384a8,8,0,0,1,2.343-5.657l18.99-18.99A35.075,35.075,0,0,1,160,340.687V328a8,8,0,0,1,16,0v12.687a19.159,19.159,0,0,0,4.9,12.818l18.433,9.221A50.37,50.37,0,0,0,221.69,368H256a8,8,0,0,1,7.891,6.685l8,48A8.046,8.046,0,0,1,272,424v56h16V424.5l-7.938-63.506a8,8,0,0,1,4.359-8.147l23.03-11.52a163.952,163.952,0,0,0,23.873-14.609c.08-.064.166-.121.249-.182a163.934,163.934,0,0,0,18.51-15.931l12.83-12.831A71.525,71.525,0,0,0,384,246.86V225.889l-.845,1.689A8,8,0,0,1,376,232ZM216,288h-8a8,8,0,0,1,0-16h8a8,8,0,0,1,0,16Zm24-24h-8a8,8,0,0,1,0-16h8a8,8,0,0,1,0,16Zm24,24h-8a8,8,0,0,1,0-16h8a8,8,0,0,1,0,16Zm16-32h-8a8,8,0,0,1,0-16h8a8,8,0,0,1,0,16Zm24,24h-8a8,8,0,0,1,0-16h8a8,8,0,0,1,0,16Z"/><path d="M398.627,140.688l-5.933,5.931L396.281,152h4.889a15.9,15.9,0,0,0,14.3-8.844l3.58-7.156H409.94A16.106,16.106,0,0,0,398.627,140.688Z"/><path d="M468.438,41.344a8,8,0,0,0-11.094,2.218L451.2,52.783A80.464,80.464,0,0,1,437.346,68.6,98.75,98.75,0,0,0,440,45.912V32a8,8,0,0,0-16,0V45.912a82.7,82.7,0,0,1-20.468,54.475l-19.518,22.306a57.689,57.689,0,0,1,9.709-30.855l4.933-7.4a8,8,0,1,0-13.312-8.876l-4.934,7.4A73.66,73.66,0,0,0,368,123.95V144H352V123.95a73.66,73.66,0,0,0-12.41-40.987l-4.934-7.4a8,8,0,1,0-13.312,8.876l4.933,7.4a57.689,57.689,0,0,1,9.709,30.855l-19.518-22.307A82.7,82.7,0,0,1,296,45.912V32a8,8,0,0,0-16,0V45.912A98.7,98.7,0,0,0,282.655,68.6,80.464,80.464,0,0,1,268.8,52.783l-6.147-9.221a8,8,0,1,0-13.312,8.876l6.147,9.22a96.317,96.317,0,0,0,26.85,26.851l9.221,6.147a7.974,7.974,0,0,0,1.845.9,98.683,98.683,0,0,0,11.02,15.371l33.552,38.346a7.988,7.988,0,0,0,4.119,2.492l.545.695-.02.029L336,162.422v27.689L348.944,216h22.112L384,190.111V162.422l-6.624-9.937-.02-.029.545-.695a7.984,7.984,0,0,0,4.12-2.492l33.552-38.346a98.683,98.683,0,0,0,11.02-15.371,7.974,7.974,0,0,0,1.845-.9l9.22-6.147a96.307,96.307,0,0,0,26.851-26.851l6.147-9.22A8,8,0,0,0,468.438,41.344Z"/></g></svg>
